<svg width="25" height="25" viewBox="0 0 25 25" fill="none" xmlns="http://www.w3.org/2000/svg">
<path d="M22.0945 3.19786C22.8416 3.40782 23.5447 3.9547 23.8865 4.61388C24.2381 5.29259 24.2186 4.77989 24.2186 12.4996C24.2186 20.2193 24.2381 19.7067 23.8865 20.3805C23.6424 20.8492 23.1541 21.3277 22.6951 21.5572C22.0018 21.899 22.7732 21.8746 12.5047 21.8746C2.17266 21.8746 2.95391 21.899 2.2752 21.5426C1.83086 21.3082 1.34746 20.8248 1.11309 20.3805C0.761526 19.7067 0.781057 20.2193 0.781057 12.4996C0.781057 4.77989 0.761526 5.29259 1.11309 4.61876C1.34746 4.17443 1.83086 3.69103 2.2752 3.45665C2.95879 3.10021 2.16778 3.12462 12.5291 3.1295C20.2244 3.13439 21.8943 3.14415 22.0945 3.19786ZM3.16875 4.81407C2.88555 4.94591 2.60235 5.22911 2.48516 5.49767C2.43145 5.61974 2.38262 5.87853 2.36309 6.13732L2.33379 6.567L7.4168 9.8336L12.4998 13.0953L17.5828 9.8336L22.6658 6.567L22.6365 6.13732C22.6219 5.90294 22.573 5.6295 22.534 5.53185C22.3582 5.10704 21.9871 4.81407 21.5477 4.73595C21.4158 4.71642 17.2801 4.70177 12.3533 4.70665L3.39336 4.71153L3.16875 4.81407ZM17.7488 11.6549C15.117 13.3443 12.9148 14.7555 12.8563 14.7848C12.7977 14.819 12.6365 14.8434 12.4998 14.8434C12.3631 14.8434 12.202 14.819 12.1434 14.7848C12.0164 14.7164 2.49492 8.60314 2.40215 8.52989C2.35332 8.49083 2.34356 9.49669 2.35332 13.8717C2.36797 19.2477 2.36797 19.2623 2.47051 19.4869C2.60235 19.7701 2.88555 20.0533 3.16875 20.1852L3.39336 20.2877H12.4998H21.6063L21.8309 20.1852C22.1141 20.0533 22.3973 19.7701 22.5291 19.4869C22.6316 19.2623 22.6316 19.2477 22.6463 13.8717C22.6561 9.49669 22.6463 8.49083 22.5975 8.52989C22.5633 8.55919 20.3807 9.96544 17.7488 11.6549Z" fill="white"/>
</svg>
