<svg width="23" height="23" viewBox="0 0 23 23" fill="none" xmlns="http://www.w3.org/2000/svg">
<g clip-path="url(#clip0_311_453)">
<path d="M12.8469 0.0895481C16.3193 0.678026 19.0371 3.1622 19.8772 6.51338C20.0838 7.35342 20.1377 7.879 20.1107 8.84033C20.0658 10.4216 19.7065 11.6839 18.7721 13.611C17.7793 15.646 16.4945 17.6001 14.7111 19.7878C13.6779 21.0546 12.1371 22.7616 11.8856 22.9144C11.6969 23.0312 11.3016 23.0312 11.1129 22.9144C10.8613 22.7616 9.32052 21.0546 8.28731 19.7878C6.50391 17.6001 5.21915 15.646 4.22637 13.611C3.59298 12.3038 3.23809 11.3065 3.0045 10.1745C2.86973 9.50967 2.83829 8.13057 2.93712 7.44775C3.2336 5.49814 4.05118 3.85849 5.38985 2.51533C6.71056 1.19912 8.2963 0.395018 10.1965 0.0850563C10.8838 -0.0272484 12.1686 -0.0227566 12.8469 0.0895481ZM10.3043 1.57197C7.30802 2.08408 4.95411 4.44697 4.442 7.46123C4.32071 8.17998 4.33868 9.34795 4.48692 10.0038C5.01251 12.3712 6.54434 15.1698 9.04649 18.3278C9.67989 19.1274 10.776 20.4167 11.2207 20.8884L11.4992 21.1804L11.7732 20.8884C12.2404 20.3942 13.332 19.1095 13.952 18.3278C16.4631 15.1474 17.9859 12.3757 18.5115 10.0128C18.6598 9.34795 18.6777 8.17998 18.5565 7.46123C18.0443 4.46494 15.7039 2.09756 12.7301 1.57646C12.0383 1.45517 11.0051 1.45068 10.3043 1.57197Z" fill="white"/>
<path d="M12.2996 4.36123C13.2969 4.52744 14.3795 5.20576 14.9814 6.0458C15.5654 6.85889 15.8125 7.62256 15.8125 8.62432C15.8125 9.19033 15.7541 9.56768 15.6014 10.0169C15.1027 11.4993 13.7686 12.6448 12.2637 12.8874C11.8908 12.9503 11.1092 12.9503 10.7363 12.8874C9.64473 12.7122 8.5666 12.0159 7.92871 11.0771C7.40312 10.2954 7.1875 9.59014 7.1875 8.62432C7.1875 7.6585 7.40312 6.95322 7.92871 6.17158C8.5666 5.23271 9.64473 4.53642 10.7363 4.36123C11.0822 4.30283 11.9582 4.30732 12.2996 4.36123ZM10.8127 5.86611C9.80645 6.12666 9.00234 6.93076 8.7418 7.93701C8.64746 8.2874 8.64746 8.96123 8.7418 9.31162C9.00234 10.3179 9.80645 11.122 10.8127 11.3825C11.1631 11.4769 11.8369 11.4769 12.1873 11.3825C12.9959 11.1759 13.6877 10.6099 14.0516 9.85967C14.2492 9.45986 14.3301 9.096 14.3301 8.62432C14.3301 8.15264 14.2492 7.78877 14.0516 7.38896C13.6967 6.65674 13.0453 6.11318 12.2412 5.87959C11.8908 5.77627 11.1811 5.77178 10.8127 5.86611Z" fill="white"/>
</g>
<defs>
<clipPath id="clip0_311_453">
<rect width="23" height="23" fill="white" transform="matrix(-1 0 0 1 23 0)"/>
</clipPath>
</defs>
</svg>
