<svg width="22" height="22" viewBox="0 0 22 22" fill="none" xmlns="http://www.w3.org/2000/svg">
<g clip-path="url(#clip0_311_464)">
<path d="M11.8123 0.0983229C11.722 0.158479 11.6361 0.274494 11.5845 0.394807C11.5115 0.575275 11.5072 0.618244 11.5544 0.781526C11.6533 1.10379 11.8123 1.21551 12.3537 1.32723C15.108 1.89871 17.4111 3.4284 19.0396 5.77879C19.8259 6.90887 20.3544 8.18504 20.6896 9.76199C20.7669 10.1272 20.8701 10.2948 21.0806 10.3807C21.3986 10.5139 21.7423 10.4108 21.9142 10.1315C22.0216 9.95535 22.0216 9.82645 21.9142 9.29793C21.2826 6.21278 19.4435 3.51863 16.758 1.75262C15.6021 0.987776 14.2572 0.420588 12.8607 0.106916C12.2505 -0.0305834 12.0056 -0.0305834 11.8123 0.0983229Z" fill="white"/>
<path d="M3.69455 1.32762C3.0715 1.49949 2.8051 1.70574 1.58049 2.97762C0.583613 4.01316 0.39455 4.27527 0.196894 4.86395C0.136738 5.04012 0.0679876 5.32801 0.0379095 5.50418C-0.0222468 5.8909 0.0121282 6.87918 0.102363 7.36902C0.437519 9.1909 1.52033 11.5284 2.96408 13.5522C4.83322 16.1733 7.12346 18.3089 9.72736 19.8686C12.8512 21.7378 15.5883 22.4253 17.2641 21.755C17.7883 21.5444 18.1063 21.2866 19.1676 20.2124C20.491 18.8675 20.6457 18.6139 20.6457 17.7675C20.6414 17.2733 20.5598 16.9854 20.2977 16.5858C20.2117 16.4569 19.4555 15.662 18.609 14.8198C17.2555 13.4706 17.0449 13.2772 16.7785 13.1397C16.2887 12.8905 15.8117 12.8304 15.3176 12.955C14.8106 13.0882 14.6 13.2429 13.6504 14.1796L12.7524 15.0604L12.3613 14.8499C10.4278 13.8143 7.91838 11.2792 7.02033 9.44012L6.90861 9.21238L7.72072 8.40027C8.1676 7.9491 8.61447 7.46355 8.709 7.31746C8.95822 6.94363 9.07424 6.5698 9.07424 6.15301C9.07424 5.74051 9.01838 5.52566 8.81643 5.13465C8.68322 4.86824 8.48127 4.6534 7.09338 3.26121C5.38752 1.55535 5.25861 1.44793 4.68283 1.31473C4.32189 1.22879 4.0426 1.23309 3.69455 1.32762ZM4.59689 2.66824C4.67853 2.70691 5.409 3.4073 6.21682 4.21941C7.56603 5.57293 7.68635 5.71043 7.7465 5.90808C7.87971 6.36785 7.74221 6.5698 6.54338 7.72566C5.58947 8.6452 5.52072 8.74832 5.5551 9.17371C5.57228 9.39715 5.62385 9.54754 5.83869 9.98582C6.41018 11.1417 7.25236 12.246 8.56721 13.5565C9.68869 14.678 10.8059 15.5159 11.9531 16.1089C12.4946 16.3882 12.5633 16.4139 12.8039 16.4139C12.9844 16.4139 13.1219 16.3839 13.2465 16.3237C13.3496 16.2678 13.8395 15.8253 14.4153 15.2581C15.2231 14.4589 15.4379 14.2741 15.5797 14.2311C16.0395 14.0979 16.1082 14.1495 17.7754 15.8253C19.2578 17.312 19.3781 17.4581 19.3781 17.7889C19.3781 18.0897 19.2363 18.2831 18.3168 19.2198C17.3371 20.2167 17.2211 20.3284 16.9203 20.4788C16.134 20.8784 14.8278 20.7624 13.2121 20.1479C10.5309 19.1253 7.64768 17.0843 5.60666 14.7682C4.24885 13.2214 3.26916 11.7862 2.49143 10.205C1.2883 7.75574 0.991816 5.92957 1.62346 4.87683C1.75236 4.66199 3.6258 2.76707 3.80197 2.67683C4.07697 2.52644 4.3176 2.52644 4.59689 2.66824Z" fill="white"/>
<path d="M11.8157 3.99596C11.6266 4.04323 11.3989 4.28815 11.3602 4.49011C11.2872 4.88971 11.5364 5.19909 12.0133 5.28503C14.0715 5.66315 15.8848 7.28307 16.5337 9.32409C16.6024 9.54753 16.6754 9.81823 16.6926 9.92136C16.77 10.3811 16.9934 10.6217 17.3458 10.626C17.754 10.6303 18.0032 10.3854 18.0032 9.98151C18.0032 9.69792 17.7969 8.903 17.595 8.40026C16.7399 6.2862 14.8622 4.6405 12.6879 4.10768C12.1379 3.97448 11.9962 3.953 11.8157 3.99596Z" fill="white"/>
</g>
<defs>
<clipPath id="clip0_311_464">
<rect width="22" height="22" fill="white"/>
</clipPath>
</defs>
</svg>
