<svg width="24" height="24" viewBox="0 0 24 24" fill="none" xmlns="http://www.w3.org/2000/svg">
<path d="M10.3601 0.0645898C8.08757 0.354136 5.94704 1.29441 4.19586 2.77233C2.44468 4.25025 1.1574 6.20289 0.488824 8.39548C0.282861 9.10448 0.134657 9.82903 0.045668 10.562C-0.0152227 11.4185 -0.0152227 12.2782 0.045668 13.1347C0.301103 15.4462 1.22763 17.6321 2.71079 19.4225C4.19395 21.2129 6.16875 22.5292 8.39124 23.209C9.09976 23.4151 9.82381 23.5634 10.5563 23.6524C11.4122 23.7134 12.2714 23.7134 13.1273 23.6524C15.4361 23.3949 17.6192 22.467 19.4075 20.9831C21.1958 19.4992 22.5111 17.5241 23.1913 15.3012C23.5327 14.1827 23.6982 13.0178 23.6818 11.8483C23.6992 11.0631 23.6277 10.2784 23.4687 9.50919C23.0468 7.40684 22.0639 5.45807 20.6243 3.8697C19.1847 2.28133 17.3422 1.11265 15.2923 0.487735C14.5837 0.281201 13.8597 0.131773 13.1273 0.0408912C12.2056 -0.0206417 11.2806 -0.0127181 10.3601 0.0645898ZM13.5738 1.24262C15.8148 1.61614 17.8807 2.68806 19.477 4.30557C21.0734 5.92308 22.1187 8.00359 22.464 10.2505C22.579 11.3115 22.579 12.3818 22.464 13.4428C22.1112 15.7127 21.0464 17.8116 19.4234 19.4363C17.8005 21.0609 15.7034 22.1272 13.4351 22.4811C12.3749 22.5962 11.3053 22.5962 10.245 22.4811C7.9768 22.1272 5.87971 21.0609 4.25674 19.4363C2.63377 17.8116 1.56895 15.7127 1.21614 13.4428C1.10113 12.3818 1.10113 11.3115 1.21614 10.2505C1.58337 7.86959 2.73474 5.67957 4.48751 4.02803C6.24029 2.37648 8.49407 1.35803 10.8912 1.13429C11.7868 1.09842 12.6839 1.13465 13.5738 1.24262Z" fill="white"/>
<path d="M12.2788 7.06163C12.0273 7.09543 11.7867 7.1854 11.5747 7.32486C11.3627 7.46432 11.1848 7.64971 11.0542 7.86731C10.841 8.25321 10.7903 8.51725 10.7632 9.40416L10.7328 10.2268H9.68408V11.8483H10.7497V16.7094H12.9553V11.8483H14.3761L14.4539 11.1374C14.4945 10.7549 14.5419 10.3893 14.5554 10.3283V10.2268H12.9553V9.63098C12.9471 9.38866 12.9618 9.1461 12.9993 8.90655C13.0737 8.71021 13.2936 8.65267 13.9736 8.65267H14.5723V6.98717H13.5575C13.13 6.97919 12.7025 7.00408 12.2788 7.06163Z" fill="white"/>
</svg>
