<svg width="25" height="24" viewBox="0 0 25 24" fill="none" xmlns="http://www.w3.org/2000/svg">
<path d="M10.8259 0.0647347C8.55404 0.354894 6.41424 1.29544 4.6637 2.77332C2.91317 4.2512 1.6264 6.20351 0.958063 8.39562C0.750499 9.10423 0.602269 9.82891 0.514906 10.5621C0.454016 11.4186 0.454016 12.2784 0.514906 13.1349C0.770505 15.4458 1.69668 17.6312 3.17914 19.4214C4.6616 21.2117 6.63545 22.5284 8.85709 23.2091C9.56578 23.4145 10.2898 23.5628 11.0221 23.6526C11.8792 23.7135 12.7395 23.7135 13.5965 23.6526C15.9054 23.3951 18.0885 22.4672 19.8768 20.9832C21.6651 19.4993 22.9804 17.5242 23.6606 15.3014C24.002 14.1828 24.1675 13.0179 24.1511 11.8485C24.1684 11.0632 24.0969 10.2785 23.938 9.50933C23.5151 7.40688 22.5314 5.45816 21.0913 3.86986C19.6511 2.28157 17.8083 1.11293 15.7582 0.48788C15.0508 0.281012 14.3279 0.131578 13.5965 0.0410361C12.6737 -0.0206925 11.7475 -0.0127689 10.8259 0.0647347ZM14.0397 1.24277C16.2837 1.61303 18.3534 2.68352 19.953 4.30129C21.5527 5.91907 22.6005 8.00135 22.9468 10.2507C23.0618 11.3116 23.0618 12.382 22.9468 13.4429C22.594 15.7128 21.5292 17.8117 19.9062 19.4364C18.2832 21.0611 16.1861 22.1274 13.9179 22.4813C12.8576 22.5964 11.7881 22.5964 10.7278 22.4813C8.45957 22.1274 6.36247 21.0611 4.7395 19.4364C3.11653 17.8117 2.05173 15.7128 1.69891 13.4429C1.5839 12.382 1.5839 11.3116 1.69891 10.2507C2.06614 7.86973 3.2175 5.67972 4.97028 4.02817C6.72305 2.37663 8.97684 1.35817 11.374 1.13444C12.264 1.09954 13.1554 1.13577 14.0397 1.24277Z" fill="white"/>
<path d="M9.50359 6.55393L9.29723 6.59793C8.80783 6.69796 8.35308 6.92428 7.97805 7.25443C7.60302 7.58458 7.32075 8.0071 7.15925 8.48009C7.01378 8.91339 7.02056 8.70351 7.02056 11.8449C7.02056 14.4955 7.02055 14.6817 7.05776 14.8476C7.17158 15.4015 7.44543 15.9098 7.84535 16.3094C8.24527 16.709 8.75364 16.9823 9.30738 17.0953C9.47314 17.1326 9.64566 17.1326 12.308 17.1326C14.9703 17.1326 15.1395 17.1326 15.3052 17.0953C15.8591 16.9827 16.3677 16.7095 16.7677 16.3099C17.1677 15.9102 17.4414 15.4017 17.5548 14.8476C17.5887 14.6817 17.592 14.5091 17.592 11.8449C17.592 9.18082 17.5921 9.00817 17.5548 8.8423C17.4543 8.35063 17.2273 7.89372 16.8962 7.51673C16.5652 7.13973 16.1415 6.85572 15.6672 6.69273C15.2376 6.54378 15.4778 6.55392 12.3587 6.55054L9.50359 6.55393ZM15.2748 7.23096C15.8168 7.3761 16.2879 7.71283 16.6009 8.1788C16.8129 8.50135 16.9376 8.87344 16.9628 9.25867C16.9899 9.59719 16.9899 14.0859 16.9628 14.4075C16.9448 14.7275 16.8533 15.0391 16.6956 15.3181C16.5471 15.596 16.3417 15.8395 16.0928 16.0325C15.8439 16.2256 15.5571 16.364 15.2511 16.4386C15.0008 16.5029 14.6286 16.5131 12.308 16.5131C9.98733 16.5131 9.60169 16.5131 9.3615 16.4386C8.95923 16.3389 8.59185 16.131 8.2991 15.8374C8.00635 15.5439 7.79936 15.1759 7.70051 14.7731C7.6633 14.6479 7.6633 14.4752 7.6633 11.8348C7.6633 9.19437 7.6633 9.01834 7.70051 8.89309C7.7902 8.53136 7.96683 8.19702 8.21503 7.91915C8.46324 7.64128 8.77552 7.42828 9.12471 7.29867C9.2617 7.25234 9.4019 7.21613 9.54418 7.19034C9.58139 7.19034 10.85 7.19034 12.3689 7.19034C15.1124 7.19711 15.1293 7.19712 15.2748 7.24112V7.23096Z" fill="white"/>
<path d="M15.0072 7.95222C14.8672 7.99794 14.7413 8.0789 14.6416 8.18733C14.5419 8.29576 14.4716 8.42801 14.4377 8.5714C14.4037 8.7148 14.4072 8.86453 14.4477 9.0062C14.4882 9.14788 14.5645 9.27675 14.6691 9.38046C14.7737 9.48418 14.9032 9.55925 15.0452 9.59846C15.1871 9.63768 15.3368 9.63971 15.4797 9.60439C15.6227 9.56908 15.7542 9.4976 15.8616 9.39679C15.969 9.29598 16.0487 9.16922 16.0931 9.0287C16.1407 8.87797 16.1459 8.71704 16.108 8.56357C16.0701 8.4101 15.9908 8.27005 15.8785 8.1588C15.7663 8.04755 15.6256 7.96939 15.4719 7.93295C15.3182 7.89651 15.1574 7.90318 15.0072 7.95222ZM15.4233 8.62926C15.4538 8.65909 15.4745 8.69736 15.483 8.73913C15.4915 8.78091 15.4873 8.82429 15.4709 8.86364C15.4545 8.90299 15.4267 8.93653 15.3911 8.95992C15.3555 8.98331 15.3137 8.99548 15.2711 8.99486C15.2429 8.99687 15.2147 8.99207 15.1888 8.98087C15.1629 8.96968 15.1401 8.95242 15.1222 8.93054C15.0907 8.90005 15.0691 8.86067 15.0604 8.81763C15.0517 8.77458 15.0562 8.72991 15.0735 8.68953C15.0907 8.64914 15.1198 8.61495 15.1569 8.59149C15.194 8.56803 15.2374 8.55641 15.2812 8.55816C15.3081 8.55859 15.3345 8.56454 15.3589 8.5756C15.3834 8.58666 15.4053 8.60261 15.4233 8.62248V8.62926Z" fill="white"/>
<path d="M11.83 8.97444C11.2505 9.07195 10.7141 9.34276 10.2914 9.75123C9.86872 10.1597 9.57955 10.6867 9.46196 11.2628C9.40786 11.648 9.40786 12.0388 9.46196 12.4239C9.5769 12.9826 9.85277 13.4954 10.2555 13.899C10.6583 14.3027 11.1703 14.5795 11.7285 14.6954C12.1134 14.7495 12.5039 14.7495 12.8888 14.6954C13.447 14.5789 13.9591 14.3019 14.3624 13.8985C14.7656 13.495 15.0423 12.9825 15.1587 12.4239C15.1911 12.2328 15.2036 12.0388 15.196 11.8451C15.2142 11.5241 15.167 11.2027 15.0572 10.9006C14.8928 10.4255 14.6087 10.0008 14.2325 9.66751C13.8562 9.33426 13.4004 9.10373 12.9091 8.99814C12.5516 8.94768 12.1894 8.93972 11.83 8.97444ZM12.7129 9.61761C13.163 9.70327 13.5769 9.92246 13.9009 10.2467C14.2249 10.5708 14.4439 10.985 14.5295 11.4354C14.5701 11.7059 14.5701 11.9809 14.5295 12.2513C14.4443 12.7019 14.2255 13.1163 13.9014 13.4406C13.5774 13.7649 13.1632 13.9839 12.7129 14.0691C12.4427 14.1097 12.1679 14.1097 11.8976 14.0691C11.4475 13.9835 11.0336 13.7643 10.7096 13.4401C10.3856 13.1159 10.1666 12.7017 10.081 12.2513C10.0438 11.9806 10.0438 11.7061 10.081 11.4354C10.1672 10.9879 10.3848 10.5762 10.7059 10.253C11.0271 9.92977 11.4373 9.70973 11.8841 9.621C12.1588 9.58094 12.4379 9.5798 12.7129 9.61761Z" fill="white"/>
</svg>
