<svg width="22" height="18" viewBox="0 0 22 18" fill="none" xmlns="http://www.w3.org/2000/svg">
<path d="M19.4432 0.814119C20.1006 0.998884 20.7194 1.48013 21.0201 2.06021C21.3295 2.65748 21.3123 2.20631 21.3123 8.99967C21.3123 15.793 21.3295 15.3419 21.0201 15.9348C20.8053 16.3473 20.3756 16.7684 19.9717 16.9704C19.3615 17.2711 20.0405 17.2497 11.0041 17.2497C1.91194 17.2497 2.59944 17.2711 2.00217 16.9575C1.61116 16.7512 1.18577 16.3258 0.979517 15.9348C0.670143 15.3419 0.68733 15.793 0.68733 8.99967C0.68733 2.20631 0.670143 2.65748 0.979517 2.06451C1.18577 1.67349 1.61116 1.2481 2.00217 1.04185C2.60373 0.728182 1.90764 0.749666 11.0256 0.753963C17.7975 0.758259 19.267 0.766853 19.4432 0.814119ZM2.7885 2.23638C2.53928 2.3524 2.29006 2.60162 2.18694 2.83795C2.13967 2.94537 2.0967 3.1731 2.07952 3.40084L2.05374 3.77896L6.52678 6.65357L10.9998 9.52388L15.4729 6.65357L19.9459 3.77896L19.9201 3.40084C19.9073 3.19459 19.8643 2.95396 19.8299 2.86802C19.6752 2.4942 19.3487 2.23638 18.9619 2.16763C18.8459 2.15045 15.2065 2.13756 10.8709 2.14185L2.98616 2.14615L2.7885 2.23638ZM15.619 8.25631C13.303 9.74302 11.3651 10.9848 11.3135 11.0106C11.2619 11.0407 11.1201 11.0622 10.9998 11.0622C10.8795 11.0622 10.7377 11.0407 10.6862 11.0106C10.5744 10.9504 2.19553 5.57076 2.11389 5.50631C2.07092 5.47193 2.06233 6.35709 2.07092 10.2071C2.08381 14.9379 2.08381 14.9508 2.17405 15.1485C2.29006 15.3977 2.53928 15.6469 2.7885 15.7629L2.98616 15.8532H10.9998H19.0135L19.2112 15.7629C19.4604 15.6469 19.7096 15.3977 19.8256 15.1485C19.9158 14.9508 19.9158 14.9379 19.9287 10.2071C19.9373 6.35709 19.9287 5.47193 19.8858 5.50631C19.8557 5.53209 17.935 6.76959 15.619 8.25631Z" fill="white"/>
</svg>
