<svg width="60" height="60" viewBox="0 0 60 60" fill="none" xmlns="http://www.w3.org/2000/svg">
                        <circle cx="30" cy="30" r="29.5" transform="matrix(-1 0 0 1 60 0)" stroke="#174A6D"></circle>
                        <g clip-path="url(#clip0_188_3172)">
                        <path d="M22.5615 23.5672C23.1109 23.8504 23.3545 24.4905 23.1279 25.0512C23.0656 25.1928 22.3746 25.9235 20.9869 27.3112L18.9365 29.3672H31.0803H43.224L43.4676 29.5088C43.8244 29.7184 44 30.0469 44 30.5C44 30.9532 43.8244 31.2817 43.4676 31.4913L43.224 31.6329H31.0803H18.9365L20.9869 33.6832C22.3746 35.0766 23.0656 35.8073 23.1279 35.9489C23.3205 36.419 23.1619 36.9854 22.7484 37.3196C22.5842 37.4442 22.4596 37.4895 22.2273 37.5122C21.5646 37.5631 21.7969 37.75 18.3871 34.3913C16.6709 32.7034 15.2096 31.2194 15.1359 31.0891C14.9434 30.7663 14.9434 30.2338 15.1359 29.911C15.3059 29.6164 21.3947 23.6125 21.5986 23.5332C21.8252 23.4483 22.3689 23.4653 22.5615 23.5672Z" fill="#174A6D"></path>
                        </g>
                        <defs>
                        <clipPath id="clip0_188_3172">
                        <rect width="29" height="29" fill="white" transform="matrix(-1 0 0 1 44 16)"></rect>
                        </clipPath>
                        </defs>
                    </svg>