<svg width="60" height="60" viewBox="0 0 60 60" fill="none" xmlns="http://www.w3.org/2000/svg">
                        <circle cx="30" cy="30" r="29.5" stroke="#174A6D"></circle>
                        <g clip-path="url(#clip0_188_3171)">
                        <path d="M37.4385 23.5672C36.8891 23.8504 36.6455 24.4905 36.8721 25.0512C36.9344 25.1928 37.6254 25.9235 39.0131 27.3112L41.0635 29.3672H28.9197H16.776L16.5324 29.5088C16.1756 29.7184 16 30.0469 16 30.5C16 30.9532 16.1756 31.2817 16.5324 31.4913L16.776 31.6329H28.9197H41.0635L39.0131 33.6832C37.6254 35.0766 36.9344 35.8073 36.8721 35.9489C36.6795 36.419 36.8381 36.9854 37.2516 37.3196C37.4158 37.4442 37.5404 37.4895 37.7727 37.5122C38.4354 37.5631 38.2031 37.75 41.6129 34.3913C43.3291 32.7034 44.7904 31.2194 44.8641 31.0891C45.0566 30.7663 45.0566 30.2338 44.8641 29.911C44.6941 29.6164 38.6053 23.6125 38.4014 23.5332C38.1748 23.4483 37.6311 23.4653 37.4385 23.5672Z" fill="#174A6D"></path>
                        </g>
                        <defs>
                        <clipPath id="clip0_188_3171">
                        <rect width="29" height="29" fill="white" transform="translate(16 16)"></rect>
                        </clipPath>
                        </defs>
                    </svg>