<svg xmlns="http://www.w3.org/2000/svg" viewBox="0 0 46 46" width="46" height="46"><title>image</title><defs><clipPath clipPathUnits="userSpaceOnUse" id="cp1"><path d="m0 0h46v46h-46z"></path></clipPath></defs><style>		.s0 { fill: #7abcdb } 	</style><g id="Clip-Path" clip-path="url(#cp1)"><g id="Layer"><path id="Layer" class="s0" d="m24.7 0.2c-0.2 0.1-0.4 0.4-0.5 0.6-0.1 0.4-0.1 0.5 0 0.8 0.2 0.7 0.5 0.9 1.6 1.2 5.8 1.2 10.6 4.4 14 9.3 1.7 2.3 2.8 5 3.5 8.3 0.1 0.8 0.3 1.1 0.8 1.3 0.6 0.3 1.4 0.1 1.7-0.5 0.2-0.4 0.2-0.7 0-1.8-1.3-6.4-5.1-12-10.8-15.7-2.4-1.6-5.2-2.8-8.1-3.5-1.3-0.3-1.8-0.3-2.2 0z"></path><path id="Layer" fill-rule="evenodd" class="s0" d="m9.8 2.7c1.2 0.3 1.5 0.6 5 4.1 2.9 2.9 3.4 3.4 3.6 3.9 0.5 0.9 0.6 1.3 0.6 2.2 0 0.8-0.3 1.6-0.8 2.4-0.2 0.3-1.1 1.3-2.1 2.3l-1.7 1.7 0.3 0.4c1.9 3.9 7.1 9.2 11.1 11.4l0.9 0.4 1.8-1.9c2-1.9 2.5-2.2 3.5-2.5 1.1-0.3 2.1-0.1 3.1 0.4 0.5 0.3 1 0.7 3.8 3.5 1.8 1.7 3.4 3.4 3.5 3.7 0.6 0.8 0.8 1.4 0.8 2.5 0 1.7-0.4 2.3-3.1 5.1-2.2 2.2-2.9 2.7-4 3.2-3.5 1.4-9.2 0-15.8-4-5.4-3.2-10.2-7.7-14.1-13.2-3-4.2-5.3-9.1-6-12.9-0.2-1-0.2-3.1-0.1-3.9 0-0.4 0.2-1 0.3-1.3 0.4-1.3 0.8-1.8 2.9-4 2.6-2.6 3.1-3.1 4.4-3.4 0.8-0.2 1.3-0.2 2.1-0.1zm-1.9 2.9c-0.3 0.2-4.2 4.1-4.5 4.6-1.3 2.2-0.7 6 1.8 11.1 1.6 3.3 3.7 6.3 6.5 9.6 4.3 4.8 10.3 9.1 15.9 11.2 3.4 1.3 6.1 1.6 7.8 0.7 0.6-0.3 0.9-0.5 2.9-2.6 1.9-2 2.2-2.4 2.2-3 0-0.7-0.2-1-3.3-4.1-3.5-3.5-3.7-3.6-4.6-3.3-0.3 0-0.8 0.4-2.5 2.1-1.2 1.2-2.2 2.1-2.4 2.2q-0.4 0.2-0.9 0.2c-0.5 0-0.7 0-1.8-0.6-2.4-1.3-4.7-3-7.1-5.4-2.7-2.7-4.5-5-5.7-7.4-0.4-0.9-0.5-1.3-0.6-1.7-0.1-0.9 0.1-1.1 2.1-3 2.5-2.5 2.8-2.9 2.5-3.8-0.1-0.5-0.4-0.7-3.2-3.6-1.7-1.7-3.2-3.1-3.4-3.2-0.6-0.3-1.1-0.3-1.7 0z"></path><path id="Layer" class="s0" d="m24.7 8.4c-0.4 0.1-0.9 0.6-0.9 1-0.2 0.8 0.3 1.5 1.3 1.7 4.3 0.7 8.1 4.1 9.5 8.4 0.1 0.5 0.3 1 0.3 1.2q0.3 1.5 1.4 1.5c0.8 0 1.3-0.5 1.3-1.3 0-0.6-0.4-2.3-0.8-3.3-1.8-4.5-5.7-7.9-10.3-9-1.1-0.3-1.4-0.3-1.8-0.2z"></path></g></g></svg>