<?xml version="1.0" standalone="no"?>
<!DOCTYPE svg PUBLIC "-//W3C//DTD SVG 20010904//EN"
 "http://www.w3.org/TR/2001/REC-SVG-20010904/DTD/svg10.dtd">
<svg version="1.0" xmlns="http://www.w3.org/2000/svg"
 width="512.000000pt" height="512.000000pt" viewBox="0 0 512.000000 512.000000"
 preserveAspectRatio="xMidYMid meet">
<metadata>
Created by potrace 1.16, written by Peter Selinger 2001-2019
</metadata>
<g transform="translate(0.000000,512.000000) scale(0.100000,-0.100000)"
fill="#000000" stroke="none">
<path d="M1179 3392 c-99 -51 -143 -166 -104 -270 15 -40 108 -138 674 -705
371 -372 676 -670 701 -685 56 -34 154 -37 210 -8 19 10 331 313 692 675 483
482 662 667 674 696 9 22 17 65 16 96 0 120 -87 209 -206 212 -107 2 -85 20
-704 -597 l-572 -571 -573 572 c-436 437 -583 577 -617 592 -64 29 -126 27
-191 -7z"/>
</g>
</svg>
