<svg xmlns="http://www.w3.org/2000/svg" viewBox="0 0 45 45" width="45" height="45"><title>placeholder 1-svg</title><defs><clipPath clipPathUnits="userSpaceOnUse" id="cp1"><path d="m45 0h-45v45h45z"></path></clipPath></defs><style>		.s0 { fill: #7abcdb } 	</style><g id="Clip-Path" clip-path="url(#cp1)"><g id="Layer"><path id="Layer" fill-rule="evenodd" class="s0" d="m25.1 0.2c6.8 1.1 12.1 6 13.8 12.5 0.4 1.7 0.5 2.7 0.4 4.6 0 3.1-0.7 5.6-2.6 9.3-1.9 4-4.4 7.8-7.9 12.1-2 2.5-5.1 5.8-5.5 6.1-0.4 0.3-1.2 0.3-1.6 0-0.4-0.3-3.5-3.6-5.5-6.1-3.5-4.3-6-8.1-7.9-12.1-1.3-2.5-2-4.5-2.4-6.7-0.3-1.3-0.3-4-0.2-5.3q0.9-5.7 4.8-9.7c2.6-2.6 5.7-4.1 9.4-4.7 1.4-0.3 3.9-0.2 5.2 0zm-4.9 2.9c-5.9 1-10.5 5.6-11.5 11.5-0.2 1.4-0.2 3.7 0.1 5 1 4.6 4 10.1 8.9 16.3 1.2 1.5 3.4 4 4.3 5l0.5 0.5 0.5-0.5c0.9-1 3.1-3.5 4.3-5q7.4-9.4 8.9-16.3c0.3-1.3 0.3-3.6 0.1-5-1-5.9-5.6-10.5-11.4-11.5-1.3-0.3-3.4-0.3-4.7 0z"></path><path id="Layer" fill-rule="evenodd" class="s0" d="m24.1 8.5c1.9 0.4 4 1.7 5.2 3.3 1.2 1.6 1.6 3.1 1.6 5.1 0 1.1-0.1 1.8-0.4 2.7-1 2.9-3.6 5.1-6.5 5.6-0.7 0.1-2.3 0.1-3 0-2.1-0.3-4.2-1.7-5.5-3.5-1-1.6-1.4-2.9-1.4-4.8 0-1.9 0.4-3.3 1.4-4.8 1.3-1.9 3.4-3.2 5.5-3.6 0.7-0.1 2.4-0.1 3.1 0zm-2.9 3c-2 0.5-3.6 2.1-4.1 4-0.2 0.7-0.2 2 0 2.7 0.5 2 2.1 3.6 4.1 4.1 0.6 0.2 2 0.2 2.6 0 1.6-0.4 3-1.5 3.7-3 0.4-0.8 0.5-1.5 0.5-2.4 0-0.9-0.1-1.7-0.5-2.4-0.7-1.5-2-2.5-3.5-3-0.7-0.2-2.1-0.2-2.8 0z"></path></g></g></svg>